<svg fill="none" height="32" viewBox="0 0 93 32" width="93" xmlns="http://www.w3.org/2000/svg"><g fill="#fff"><path d="m28.0736 3.92512c-1.8487-1.84999-6.7936-.04375-12.0736 4.07872-5.2813-4.12256-10.22622-5.92736-12.07358-4.07872-1.85126 1.84998-.04375 6.79358 4.07744 12.07488-4.12128 5.2813-5.92864 10.2262-4.07744 12.0749 1.84874 1.85 6.79488.0425 12.07488-4.0787 5.28 4.1225 10.225 5.9286 12.0736 4.0787 1.85-1.85.0425-6.7949-4.08-12.0749 4.1238-5.2813 5.9299-10.22496 4.0787-12.07488zm-2.085 1.40624c.3913 0 .5563.08125.5775.1025.1075.1075.385 1.3175-.9512 4.1024-.725 1.51124-1.7513 3.13124-3.0013 4.77124-.7375-.8526-1.5287-1.705-2.3725-2.5488-.8425-.8412-1.695-1.6337-2.5462-2.36996 3.5136-2.67127 6.6013-4.0576 8.2937-4.0576zm-4.7398 10.66754c-.7813.9175-1.6188 1.835-2.5175 2.7337-.9163.9175-1.8313 1.7538-2.73 2.5163-.9175-.78-1.835-1.6175-2.7325-2.5163-.9175-.9175-1.7538-1.8325-2.5175-2.7299.78-.9188 1.6175-1.8351 2.515-2.7326.9187-.9175 1.8338-1.755 2.7313-2.5175.9187.7813 1.8362 1.6188 2.7337 2.5175.9188.9163 1.755 1.8301 2.5175 2.7288zm-15.91617-9.98754c0-.39002.08125-.55626.10125-.57751.10625-.10625 1.31751-.38499 4.1024.95251 1.51122.725 3.13002 1.75127 4.77122 3-.8525.73754-1.7063 1.52874-2.55 2.37254-.8425.8425-1.6338 1.695-2.36877 2.5462-2.67126-3.5136-4.05632-6.60254-4.05632-8.29374zm.67875 20.65764c-.39126 0-.5575-.0825-.5775-.1013-.1075-.1075-.38499-1.3175.95251-4.1024.72499-1.51 1.75002-3.13 3-4.7712.73751.8525 1.52871 1.705 2.37251 2.55.8425.8438 1.6938 1.6338 2.5462 2.37-3.5136 2.6687-6.60252 4.055-8.29372 4.055zm20.65762-.68c0 .39-.0825.5562-.1025.5762-.1075.1075-1.3175.3863-4.1024-.9513-1.51-.7249-3.13-1.7512-4.7699-3.0012.8512-.7375 1.705-1.5287 2.5475-2.3713.8437-.8425 1.635-1.695 2.3712-2.5475 2.67 3.5149 4.0563 6.6026 4.0563 8.2951z"/><path d="m40.3707 9.90909 4.7749 8.46311v4.6278h2.7486v-4.6278l4.7748-8.46311h-3.1001l-2.9851 5.63781h-.1278l-2.9851-5.63781zm16.5778 0h-2.7677v13.09091h2.7677zm2.2772 13.09091h8.8466v-2.282h-6.0789v-3.1257h5.5995v-2.2819h-5.5995v-3.1193h6.0533v-2.28201h-8.821zm11.0215 0h8.3799v-2.282h-5.6122v-10.80891h-2.7677zm14.8535 0c3.9886 0 6.4048-2.4673 6.4048-6.5582 0-4.0782-2.4162-6.53271-6.3665-6.53271h-4.679v13.09091zm-1.8729-2.3714v-8.3481h1.7642c2.4546 0 3.7521 1.2529 3.7521 4.1613 0 2.9211-1.2975 4.1868-3.7585 4.1868z"/></g></svg>