<svg width="110" height="20" viewBox="0 0 110 20" fill="none" xmlns="http://www.w3.org/2000/svg">
<path fill-rule="evenodd" clip-rule="evenodd" d="M109.941 8.55944C109.972 8.9376 109.991 9.32969 110 9.73567C109.848 13.531 106.403 17.0569 100.588 20H90.6596C87.9673 20 86.4962 18.4548 86.4962 15.6268V4.8688C86.4962 2.04082 87.9673 0.495627 90.6596 0.495627H100.874C101.925 0.495627 102.877 0.578692 103.734 0.746873C107.35 3.10433 109.548 5.75187 109.941 8.55944ZM3.91573 1.09368L11.4579 9.76676C11.5689 9.88338 11.7354 9.88338 11.8465 9.73761L20.3119 0L25.1136 2.53644L14.2612 14.9854V20H9.01539V14.9563L0 4.63882C0.959562 3.40324 2.27817 2.217 3.91573 1.09368ZM32.5988 20V0.495627H27.353V20H32.5988ZM58.3321 14.6064V20H41.762C39.0697 20 37.5987 18.4548 37.5987 15.6268V4.8688C37.5987 2.04082 39.0697 0.495627 41.762 0.495627H58.3321V5.88921H43.1498C42.9555 5.88921 42.8722 5.97668 42.8722 6.18076V7.93003H58.3321V12.5656H42.8722V14.3149C42.8722 14.519 42.9555 14.6064 43.1498 14.6064H58.3321ZM83.4442 20V14.6064H68.8725C68.6782 14.6064 68.595 14.519 68.595 14.3149V0.495627H63.3214V15.6268C63.3214 18.4548 64.7924 20 67.4847 20H83.4442ZM91.7421 14.2857C91.7421 14.4898 91.8253 14.5773 92.0196 14.5773H100.43C102.234 14.5773 103.011 14.4898 103.788 13.9067C104.565 13.3236 104.787 12.2157 104.787 10.2332C104.787 8.25073 104.565 7.17201 103.788 6.58892C103.011 6.00583 102.234 5.91837 100.43 5.91837H92.0196C91.8253 5.91837 91.7421 6.00583 91.7421 6.20991V14.2857Z" fill="white"/>
</svg>
