<svg width="100" height="23" viewBox="0 0 100 23" fill="none" xmlns="http://www.w3.org/2000/svg">
<path fill-rule="evenodd" clip-rule="evenodd" d="M10.4719 10.408L12.7173 5.34094L14.9627 0.650499C15.0761 0.422254 15.1895 0.262482 15.3029 0.171183C15.439 0.0570608 15.6318 0 15.8813 0H20.202C20.5196 0 20.6783 0.0684732 20.6783 0.20542C20.701 0.342368 20.6783 0.479315 20.6103 0.616262L13.0235 15.1669V20.4515C11.1165 20.7656 9.38503 21.104 7.85219 21.4634V15.2354L0.0612389 0.650499C-0.00680434 0.536376 -0.0181449 0.399429 0.0272173 0.239658C0.0952605 0.079886 0.254028 0 0.50352 0H4.79024C5.10778 0 5.32325 0.0570608 5.43665 0.171183C5.57274 0.285306 5.69749 0.479315 5.81089 0.75321L8.09034 5.51213L10.2677 10.408H10.4719ZM95.5401 22.3992C96.4223 21.8151 97.1605 21.1161 97.7546 20.3024C98.5711 19.184 99.1495 17.8944 99.4897 16.4337C99.8299 14.9729 100 13.4551 100 11.8802C100 10.2825 99.8072 8.76462 99.4216 7.32668C99.0361 5.86591 98.4123 4.59914 97.5504 3.52639C96.6886 2.45364 95.5658 1.59772 94.1823 0.95863C92.7988 0.319543 91.109 0 89.1131 0H82.751C81.9345 0 81.3902 0.171183 81.118 0.513551C80.8458 0.85592 80.7097 1.3923 80.7097 2.12268V19.5809C87.053 20.3225 92.1732 21.2884 95.5401 22.3992ZM76.4528 19.1344V16.234C76.4528 15.9144 76.4074 15.7204 76.3167 15.6519C76.226 15.5606 76.0559 15.515 75.8064 15.515H67.1649C66.4845 15.515 65.9288 15.3666 65.4978 15.0699C65.3584 14.9686 65.2428 14.9506 65.151 14.9363C64.974 14.9088 64.8854 14.895 64.8854 14.3238V0.718973C64.8854 0.422254 64.8287 0.228246 64.7153 0.136947C64.6246 0.0456489 64.4091 0 64.0689 0H60.4626C60.1905 0 59.9863 0.0570608 59.8502 0.171183C59.7368 0.262482 59.6801 0.445078 59.6801 0.718973V14.7004C59.6801 15.1838 59.7153 15.2748 59.7857 15.4567C59.8284 15.5668 59.8839 15.7103 59.9523 15.9943C60.1338 16.7475 60.4626 17.4208 60.9389 18.0143C60.9855 18.0722 61.0335 18.1291 61.083 18.1849C66.6095 18.3725 71.7886 18.6974 76.4528 19.1344ZM54.4993 18.03V16.3024C54.4993 15.9601 54.4539 15.7432 54.3632 15.6519C54.2951 15.5378 54.1137 15.4807 53.8188 15.4807H44.8371C44.1113 15.4807 43.5557 15.3438 43.1701 15.0699C42.8208 14.7843 42.6396 12.4132 42.6265 11.5235H52.3899C52.6621 11.5235 52.8322 11.4665 52.9003 11.3524C52.991 11.2154 53.0364 11.01 53.0364 10.7361V8.06562C53.0364 7.74608 52.991 7.52924 52.9003 7.41512C52.8322 7.301 52.6621 7.24394 52.3899 7.24394H42.6257V6.6077C42.6257 6.01427 42.7732 5.51213 43.068 5.10128C43.3629 4.69044 43.9526 4.48502 44.8371 4.48502H53.4786C53.7281 4.48502 53.8982 4.43937 53.989 4.34808C54.0797 4.23395 54.125 4.02853 54.125 3.73181V0.821683C54.125 0.502139 54.0797 0.285306 53.989 0.171183C53.9209 0.0570608 53.7508 0 53.4786 0H43.7144C42.5577 0 41.5824 0.182596 40.7886 0.547788C39.9947 0.890157 39.3483 1.35806 38.8493 1.9515C38.373 2.54494 38.0215 3.21826 37.7947 3.97147C37.5679 4.72468 37.4544 5.51213 37.4544 6.33381V13.7004C37.4544 14.4765 37.5452 15.2411 37.7266 15.9943C37.9081 16.7475 38.2369 17.4208 38.7132 18.0143C38.7603 18.0729 38.8089 18.1304 38.8591 18.1869C42.4417 18.0646 46.1706 18 50 18C51.5165 18 53.0172 18.0101 54.4993 18.03ZM30.5446 18.589V0.75321C30.5446 0.456491 30.4879 0.262482 30.3745 0.171183C30.2838 0.0798851 30.0683 0.0342361 29.7281 0.0342361H26.1218C25.8496 0.0342361 25.6455 0.0912974 25.5094 0.20542C25.396 0.296718 25.3393 0.479315 25.3393 0.75321V18.9742C27.0163 18.8313 28.7538 18.7025 30.5446 18.589ZM94.3864 8.97004C94.5679 9.8602 94.6586 10.8302 94.6586 11.8802C94.6586 12.9757 94.5679 13.9914 94.3864 14.9272C94.205 15.8402 93.8875 16.6277 93.4338 17.2896C92.9802 17.9515 92.3565 18.4765 91.5626 18.8645C90.7915 19.2297 89.8162 19.4123 88.6368 19.4123H85.881V4.55349H88.5347C89.7368 4.55349 90.7348 4.7475 91.5286 5.13552C92.3225 5.50071 92.9462 6.01427 93.3998 6.67618C93.8761 7.31526 94.205 8.07989 94.3864 8.97004Z" fill="white"/>
</svg>
