<svg width="96" height="24" viewBox="0 0 96 24" fill="none" xmlns="http://www.w3.org/2000/svg">
<path d="M10.6317 10.408L12.9114 5.34094L15.1911 0.650499C15.3063 0.422254 15.4214 0.262482 15.5365 0.171184C15.6747 0.0570613 15.8704 0 16.1237 0H20.5104C20.8328 0 20.994 0.0684734 20.994 0.20542C21.017 0.342368 20.994 0.479316 20.9249 0.616263L13.2223 15.1669V23.3153C13.2223 23.5663 13.1762 23.7489 13.0841 23.8631C12.992 23.9544 12.7848 24 12.4624 24H8.69742C8.21384 24 7.97206 23.7718 7.97206 23.3153V15.2354L0.0621738 0.650499C-0.00690821 0.536376 -0.0184218 0.39943 0.0276328 0.239659C0.0967147 0.0798862 0.257906 0 0.511206 0H4.86337C5.18575 0 5.40451 0.0570613 5.51965 0.171184C5.65781 0.285306 5.78446 0.479315 5.8996 0.75321L8.21384 5.51213L10.4245 10.408H10.6317Z" fill="black"/>
<path d="M29.6292 23.281C29.6292 23.5777 29.5717 23.7718 29.4565 23.8631C29.3644 23.9544 29.1457 24 28.8003 24H25.1389C24.8626 24 24.6553 23.9544 24.5172 23.8631C24.402 23.7489 24.3445 23.5549 24.3445 23.281V0.75321C24.3445 0.479315 24.402 0.296719 24.5172 0.20542C24.6553 0.0912976 24.8626 0.0342364 25.1389 0.0342364H28.8003C29.1457 0.0342364 29.3644 0.0798855 29.4565 0.171184C29.5717 0.262482 29.6292 0.456491 29.6292 0.75321V23.281Z" fill="black"/>
<path d="M52.568 23.2126C52.568 23.4864 52.5219 23.6919 52.4298 23.8288C52.3377 23.9429 52.1535 24 51.8771 24H41.653C40.3635 24 39.3042 23.8174 38.4752 23.4522C37.6693 23.087 37.0245 22.6077 36.541 22.0143C36.0574 21.4208 35.7235 20.7475 35.5393 19.9943C35.355 19.2411 35.2629 18.4765 35.2629 17.7004V6.33381C35.2629 5.51213 35.3781 4.72468 35.6083 3.97147C35.8386 3.21826 36.1955 2.54494 36.6791 1.9515C37.1857 1.35806 37.842 0.890157 38.648 0.547788C39.4539 0.182596 40.4441 0 41.6185 0H51.5317C51.8081 0 51.9808 0.0570613 52.0499 0.171184C52.142 0.285306 52.188 0.502139 52.188 0.821683V3.73181C52.188 4.02853 52.142 4.23395 52.0499 4.34807C51.9577 4.43937 51.785 4.48502 51.5317 4.48502H42.7583C41.8603 4.48502 41.2616 4.69044 40.9622 5.10128C40.6628 5.51213 40.5132 6.01427 40.5132 6.6077V9.24394H50.4264C50.7028 9.24394 50.8755 9.301 50.9445 9.41512C51.0366 9.52924 51.0827 9.74608 51.0827 10.0656V12.7361C51.0827 13.01 51.0366 13.2154 50.9445 13.3524C50.8755 13.4665 50.7028 13.5235 50.4264 13.5235H40.5132V17.4265C40.5132 18.2254 40.6974 18.7732 41.0658 19.0699C41.4573 19.3438 42.0215 19.4807 42.7583 19.4807H51.8771C52.1765 19.4807 52.3607 19.5378 52.4298 19.6519C52.5219 19.7432 52.568 19.9601 52.568 20.3024V23.2126Z" fill="black"/>
<path d="M62.8363 24C61.5468 24 60.4876 23.8174 59.6586 23.4522C58.8526 23.087 58.2079 22.6077 57.7243 22.0143C57.2407 21.4208 56.9068 20.7475 56.7226 19.9943C56.5384 19.2411 56.4463 18.4765 56.4463 17.7004V0.718974C56.4463 0.445079 56.5038 0.262482 56.619 0.171184C56.7571 0.0570613 56.9644 0 57.2407 0H60.9021C61.2475 0 61.4662 0.0456492 61.5583 0.136947C61.6735 0.228246 61.731 0.422255 61.731 0.718974V17.3238C61.731 18.1912 61.9383 18.7732 62.3528 19.0699C62.7903 19.3666 63.3545 19.515 64.0453 19.515H72.8187C73.072 19.515 73.2447 19.5606 73.3368 19.6519C73.4289 19.7204 73.475 19.9144 73.475 20.234V23.281C73.475 23.7603 73.2562 24 72.8187 24H62.8363Z" fill="black"/>
<path d="M78.4877 24C77.6587 24 77.1061 23.8402 76.8298 23.5207C76.5534 23.1783 76.4153 22.6419 76.4153 21.9116V2.12268C76.4153 1.3923 76.5534 0.855921 76.8298 0.513552C77.1061 0.171184 77.6587 0 78.4877 0H84.9469C86.9733 0 88.6888 0.319543 90.0935 0.95863C91.4982 1.59772 92.638 2.45364 93.5131 3.52639C94.3881 4.59914 95.0213 5.86591 95.4128 7.32668C95.8043 8.76462 96 10.2825 96 11.8802C96 13.4551 95.8273 14.9729 95.4819 16.4337C95.1365 17.8944 94.5493 19.184 93.7203 20.3024C92.8913 21.4208 91.786 22.3224 90.4044 23.0071C89.0458 23.669 87.3532 24 85.3268 24H78.4877ZM90.5771 11.8802C90.5771 10.8302 90.485 9.8602 90.3007 8.97004C90.1165 8.07989 89.7826 7.31526 89.299 6.67618C88.8385 6.01427 88.2053 5.50071 87.3993 5.13552C86.5933 4.7475 85.5801 4.5535 84.3597 4.5535H81.6655V19.4123H84.4633C85.6607 19.4123 86.6509 19.2297 87.4338 18.8645C88.2398 18.4765 88.873 17.9515 89.3336 17.2896C89.7941 16.6277 90.1165 15.8402 90.3007 14.9272C90.485 13.9914 90.5771 12.9757 90.5771 11.8802Z" fill="black"/>
</svg>
