<svg fill="none" height="48" viewBox="0 0 41 48" width="41" xmlns="http://www.w3.org/2000/svg" xmlns:xlink="http://www.w3.org/1999/xlink"><clipPath id="a"><path d="m.047607 0h40.4313v48h-40.4313z"/></clipPath><g clip-path="url(#a)"><path d="m39.6315 37.4071c-.7259 1.677-1.5851 3.2207-2.5806 4.6399-1.357 1.9347-2.4681 3.274-3.3244 4.0177-1.3273 1.2207-2.7495 1.8458-4.2724 1.8814-1.0933 0-2.4118-.3111-3.9466-.9422-1.5398-.6281-2.9548-.9392-4.2487-.9392-1.357 0-2.8124.3111-4.3691.9392-1.559.6311-2.815.96-3.7753.9925-1.4604.0623-2.916-.5807-4.369-1.9317-.92737-.8089-2.08734-2.1955-3.47692-4.1599-1.49092-2.0977-2.71666-4.5303-3.67692-7.3035-1.028414-2.9955-1.5439526-5.8961-1.5439526-8.7043 0-3.2168.6950886-5.9913 2.0873426-8.3162 1.09419-1.8675 2.54984-3.3407 4.37171-4.4221 1.82187-1.0815 3.79044-1.6326 5.91034-1.6678 1.16 0 2.6811.3588 4.5714 1.0639 1.885.7076 3.0953 1.0664 3.626 1.0664.3967 0 1.7412-.4196 4.0206-1.256 2.1555-.7757 3.9747-1.0968 5.465-.9703 4.0384.3259 7.0723 1.9178 9.0901 4.7859-3.6118 2.1884-5.3984 5.2535-5.3628 9.1855.0326 3.0627 1.1436 5.6114 3.3273 7.635.9896.9393 2.0947 1.6652 3.3243 2.1807-.2667.7733-.5481 1.514-.8474 2.2251zm-9.2619-36.446277c0 2.400547-.877 4.641937-2.6251 6.716537-2.1096 2.46634-4.6612 3.89144-7.4282 3.66654-.0353-.288-.0557-.5911-.0557-.9096 0-2.30451 1.0032-4.7708 2.7848-6.78734.8894-1.021 2.0207-1.86995 3.3925-2.54718 1.3688-.66712 2.6636-1.0360526 3.8813-1.09923068.0356.32091568.0504.64185168.0504.96024268z" fill="#000"/></g></svg>