<svg fill="none" height="48" viewBox="0 0 41 48" width="41" xmlns="http://www.w3.org/2000/svg" xmlns:xlink="http://www.w3.org/1999/xlink"><clipPath id="a"><path d="m.047607 0h40.4313v48h-40.4313z"/></clipPath><g clip-path="url(#a)"><path d="m39.6315 37.4071c-.7259 1.677-1.5851 3.2206-2.5806 4.6399-1.357 1.9347-2.4681 3.2739-3.3244 4.0176-1.3273 1.2207-2.7495 1.8459-4.2724 1.8814-1.0933 0-2.4118-.3111-3.9466-.9421-1.5398-.6282-2.9548-.9393-4.2487-.9393-1.357 0-2.8124.3111-4.3691.9393-1.559.631-2.815.9599-3.7753.9925-1.4604.0622-2.916-.5807-4.369-1.9318-.92737-.8088-2.08734-2.1955-3.47692-4.1599-1.49092-2.0977-2.71666-4.5302-3.67692-7.3034-1.028414-2.9955-1.5439526-5.8962-1.5439526-8.7044 0-3.2168.6950886-5.9912 2.0873426-8.3162 1.09419-1.8675 2.54984-3.3406 4.37171-4.4221 1.82187-1.0814 3.79044-1.6325 5.91034-1.6678 1.16 0 2.6811.3589 4.5714 1.064 1.885.7075 3.0953 1.0664 3.626 1.0664.3967 0 1.7412-.4196 4.0206-1.256 2.1555-.7757 3.9747-1.0969 5.465-.9704 4.0384.326 7.0723 1.9179 9.0901 4.786-3.6118 2.1884-5.3984 5.2534-5.3628 9.1855.0326 3.0627 1.1436 5.6114 3.3273 7.635.9896.9392 2.0947 1.6651 3.3243 2.1807-.2667.7733-.5481 1.514-.8474 2.2251zm-9.2619-36.446308c0 2.400548-.877 4.641938-2.6251 6.716538-2.1096 2.46627-4.6612 3.89147-7.4282 3.66657-.0353-.288-.0557-.5911-.0557-.9096 0-2.30454 1.0032-4.77084 2.7848-6.78737.8894-1.021 2.0207-1.86996 3.3925-2.54718 1.3688-.667121 2.6636-1.0360532 3.8813-1.0992312.0356.3209162.0504.6418522.0504.9602422z" fill="#b3b3b3"/></g></svg>