<svg fill="none" height="48" viewBox="0 0 48 48" width="48" xmlns="http://www.w3.org/2000/svg"><path d="m48 24c0-13.2548-10.7452-24-24-24s-24 10.7452-24 24c0 11.9789 8.77641 21.908 20.25 23.7084v-16.7709h-6.0938v-6.9375h6.0938v-5.2875c0-6.015 3.5831-9.3375 9.0652-9.3375 2.625 0 5.3723.46875 5.3723.46875v5.90625h-3.0262c-2.9813 0-3.9113 1.8502-3.9113 3.75v4.5h6.6562l-1.064 6.9375h-5.5922v16.7709c11.4736-1.8004 20.25-11.7295 20.25-23.7084z" fill="#1877f2"/><path d="m33.3422 30.9375 1.064-6.9375h-6.6562v-4.5c0-1.898.93-3.75 3.9113-3.75h3.0262v-5.90625s-2.7464-.46875-5.3723-.46875c-5.4821 0-9.0652 3.3225-9.0652 9.3375v5.2875h-6.0938v6.9375h6.0938v16.7709c2.4849.3888 5.0151.3888 7.5 0v-16.7709z" fill="#fff"/></svg>