<svg fill="none" height="48" viewBox="0 0 48 48" width="48" xmlns="http://www.w3.org/2000/svg" xmlns:xlink="http://www.w3.org/1999/xlink"><clipPath id="a"><path d="m0 .145752h48v47.7084h-48z"/></clipPath><g clip-path="url(#a)"><path d="m48 24.1458c0-13.2549-10.7452-24.000048-24-24.000048s-24 10.745148-24 24.000048c0 11.9789 8.77641 21.9079 20.25 23.7084v-16.7709h-6.0938v-6.9375h6.0938v-5.2875c0-6.015 3.5831-9.33755 9.0652-9.33755 2.625 0 5.3723.46875 5.3723.46875v5.9063h-3.0262c-2.9813 0-3.9113 1.8501-3.9113 3.75v4.5h6.6562l-1.064 6.9375h-5.5922v16.7709c11.4736-1.8005 20.25-11.7295 20.25-23.7084z" fill="#000"/></g></svg>