<svg fill="none" height="48" viewBox="0 0 33 48" width="33" xmlns="http://www.w3.org/2000/svg" xmlns:xlink="http://www.w3.org/1999/xlink"><clipPath id="a"><path d="m.479004 0h32.0001v48h-32.0001z"/></clipPath><g clip-path="url(#a)"><path d="m8.47913 48c4.41607 0 8.00017-3.5841 8.00017-8.0001v-8h-8.00017c-4.41603 0-8.000126 3.584-8.000126 8s3.584096 8.0001 8.000126 8.0001z" fill="#0acf83"/><path d="m.479004 24c0-4.416 3.584096-8.0001 8.000126-8.0001h8.00017v15.9999h-8.00017c-4.41603.0002-8.000126-3.5838-8.000126-7.9998z" fill="#a259ff"/><path d="m.479004 8.00006c0-4.416 3.584096-8.00006 8.000126-8.00006h8.00017v15.9999h-8.00017c-4.41603 0-8.000126-3.5838-8.000126-7.99984z" fill="#f24e1e"/><path d="m16.4788 0h8.0001c4.416 0 8.0001 3.58406 8.0001 8.00006 0 4.41604-3.5841 7.99984-8.0001 7.99984h-8.0001z" fill="#ff7262"/><path d="m32.479 24c0 4.416-3.5841 8-8.0001 8-4.4161 0-8.0001-3.584-8.0001-8s3.584-8.0001 8.0001-8.0001c4.416 0 8.0001 3.5841 8.0001 8.0001z" fill="#1abcfe"/></g></svg>