<svg fill="none" height="48" viewBox="0 0 48 48" width="48" xmlns="http://www.w3.org/2000/svg" xmlns:xlink="http://www.w3.org/1999/xlink"><clipPath id="a"><path d="m0 0h47.0476v48h-47.0476z"/></clipPath><g clip-path="url(#a)"><path d="m47.0476 24.5512c0-1.6315-.1322-3.2717-.4144-4.8767h-22.6376v9.2419h12.9635c-.538 2.9807-2.2664 5.6175-4.7974 7.2931v5.9967h7.734c4.5416-4.1801 7.1519-10.3532 7.1519-17.655z" fill="#4285f4"/><path d="m23.9956 48c6.4729 0 11.9316-2.1253 15.9089-5.7939l-7.734-5.9967c-2.1518 1.4639-4.9296 2.2929-8.1661 2.2929-6.2612 0-11.5701-4.2241-13.4749-9.9034h-7.98092v6.1819c4.07423 8.1044 12.37262 13.2192 21.44702 13.2192z" fill="#34a853"/><path d="m10.5207 28.5989c-1.00534-2.9807-1.00534-6.2083 0-9.189v-6.1819h-7.97209c-3.404006 6.7816-3.404006 14.7713 0 21.5528z" fill="#fbbc04"/><path d="m23.9956 9.49767c3.4216-.05291 6.7286 1.23463 9.2067 3.59803l6.8521-6.85211c-4.3388-4.07423-10.0974-6.3141699-16.0588-6.24362062-9.0744 0-17.37279 5.11483062-21.44702 13.22803062l7.97212 6.1819c1.896-5.6881 7.2136-9.91223 13.4749-9.91223z" fill="#ea4335"/></g></svg>