<svg fill="none" height="48" viewBox="0 0 48 48" width="48" xmlns="http://www.w3.org/2000/svg" xmlns:xlink="http://www.w3.org/1999/xlink"><clipPath id="a"><path d="m0 0h47.0476v48h-47.0476z"/></clipPath><g clip-path="url(#a)"><path clip-rule="evenodd" d="m33.2023 13.0957c-2.4781-2.3634-5.7851-3.65094-9.2067-3.59803-6.2612 0-11.5789 4.22413-13.4749 9.91213v.0001c-1.00534 2.9807-1.00534 6.2083 0 9.189h.0088c1.9048 5.6793 7.2136 9.9034 13.4749 9.9034 3.2321 0 6.0068-.8267 8.1573-2.2869v-.0059c2.531-1.6755 4.2594-4.3123 4.7974-7.293h-12.9635v-9.242h22.6376c.2822 1.605.4144 3.2453.4144 4.8767 0 7.2997-2.6087 13.4713-7.1479 17.6513l.0048.0036c-3.9773 3.6686-9.436 5.7939-15.9089 5.7939-9.0744 0-17.37279-5.1148-21.44702-13.2192-3.403976-6.7815-3.403967-14.7712.00003-21.5528h.00005-.00008c4.07423-8.1132 12.37262-13.22803062 21.44702-13.22803062 5.9614-.07054928 11.72 2.16939062 16.0588 6.24362062z" fill="#000" fill-rule="evenodd"/></g></svg>