<svg fill="none" height="48" viewBox="0 0 48 48" width="48" xmlns="http://www.w3.org/2000/svg"><g fill="#000"><path d="m24 4.32187c6.4125 0 7.1719.02813 9.6938.14063 2.3437.10312 3.6093.49688 4.4531.825 1.1156.43125 1.9219.95625 2.7562 1.79062.8438.84376 1.3594 1.64063 1.7907 2.75626.3281.84372.7218 2.11872.825 4.45312.1125 2.5312.1406 3.2906.1406 9.6938 0 6.4125-.0281 7.1718-.1406 9.6937-.1032 2.3438-.4969 3.6094-.825 4.4531-.4313 1.1157-.9563 1.9219-1.7907 2.7563-.8437.8437-1.6406 1.3594-2.7562 1.7906-.8438.3281-2.1188.7219-4.4531.825-2.5313.1125-3.2907.1406-9.6938.1406-6.4125 0-7.1719-.0281-9.6937-.1406-2.3438-.1031-3.6094-.4969-4.45317-.825-1.11563-.4312-1.92188-.9562-2.75625-1.7906-.84375-.8438-1.35938-1.6406-1.79063-2.7563-.32812-.8437-.72187-2.1187-.825-4.4531-.1125-2.5312-.14062-3.2906-.14062-9.6937 0-6.4125.02812-7.1719.14062-9.6938.10313-2.3438.49688-3.6094.825-4.45312.43125-1.11563.95625-1.92188 1.79063-2.75626.84375-.84374 1.64062-1.35937 2.75625-1.79062.84377-.32812 2.11877-.72188 4.45317-.825 2.5218-.1125 3.2812-.14063 9.6937-.14063zm0-4.32187c-6.5156 0-7.3312.028125-9.8906.140625-2.55.1125-4.30315.525-5.8219 1.115625-1.58438.61875-2.925 1.43437-4.25625 2.775-1.34062 1.33125-2.15625 2.67188-2.775 4.24688-.590625 1.52812-1.003125 3.27187-1.115625 5.82187-.1125 2.5687-.140625 3.3844-.140625 9.9s.028125 7.3312.140625 9.8906c.1125 2.55.525 4.3032 1.115625 5.8219.61875 1.5844 1.43438 2.925 2.775 4.2563 1.33125 1.3312 2.67188 2.1562 4.24688 2.7656 1.52812.5906 3.27187 1.0031 5.82187 1.1156 2.5594.1125 3.375.1406 9.8906.1406 6.5157 0 7.3313-.0281 9.8907-.1406 2.55-.1125 4.3031-.525 5.8218-1.1156 1.575-.6094 2.9157-1.4344 4.2469-2.7656 1.3312-1.3313 2.1563-2.6719 2.7656-4.2469.5907-1.5281 1.0032-3.2719 1.1157-5.8219.1125-2.5594.1406-3.375.1406-9.8906s-.0281-7.3313-.1406-9.8906c-.1125-2.55-.525-4.30317-1.1157-5.82192-.5906-1.59376-1.4062-2.93438-2.7468-4.26563-1.3313-1.33125-2.6719-2.15625-4.2469-2.76563-1.5281-.59062-3.2719-1.00312-5.8219-1.11562-2.5687-.121875-3.3844-.15-9.9-.15z"/><path d="m24 11.6719c-6.8062 0-12.3281 5.5219-12.3281 12.3281s5.5219 12.3281 12.3281 12.3281 12.3281-5.5219 12.3281-12.3281-5.5219-12.3281-12.3281-12.3281zm0 20.325c-4.4156 0-7.9969-3.5813-7.9969-7.9969s3.5813-7.9969 7.9969-7.9969 7.9969 3.5813 7.9969 7.9969-3.5813 7.9969-7.9969 7.9969z"/><path d="m39.6937 11.1843c0 1.5937-1.2937 2.8781-2.8781 2.8781-1.5937 0-2.8781-1.2937-2.8781-2.8781 0-1.59377 1.2938-2.87815 2.8781-2.87815 1.5844 0 2.8781 1.29375 2.8781 2.87815z"/></g></svg>