<svg fill="none" height="48" viewBox="0 0 49 48" width="49" xmlns="http://www.w3.org/2000/svg" xmlns:xlink="http://www.w3.org/1999/xlink"><clipPath id="a"><path d="m.479004 0h48v48h-48z"/></clipPath><g clip-path="url(#a)"><path d="m44.9259 0h-40.90315c-1.95937 0-3.543746 1.54688-3.543746 3.45938v41.07182c0 1.9125 1.584376 3.4688 3.543746 3.4688h40.90315c1.9594 0 3.5531-1.5562 3.5531-3.4594v-41.08122c0-1.9125-1.5937-3.45938-3.5531-3.45938zm-30.2063 40.9031h-7.12497v-22.9125h7.12497zm-3.5625-26.0343c-2.28747 0-4.13435-1.8469-4.13435-4.1251 0-2.27808 1.84688-4.12495 4.13435-4.12495 2.2782 0 4.125 1.84687 4.125 4.12495 0 2.2688-1.8468 4.1251-4.125 4.1251zm30.225 26.0343h-7.1156v-11.1375c0-2.6531-.0469-6.075-3.7031-6.075-3.7031 0-4.2656 2.8969-4.2656 5.8875v11.325h-7.1063v-22.9125h6.825v3.1313h.0938c.9468-1.8 3.2718-3.7031 6.7312-3.7031 7.2094 0 8.5406 4.7437 8.5406 10.9125z" fill="#000"/></g></svg>