<svg fill="none" height="48" viewBox="0 0 49 48" width="49" xmlns="http://www.w3.org/2000/svg" xmlns:xlink="http://www.w3.org/1999/xlink"><clipPath id="a"><path d="m.479004 0h48v48h-48z"/></clipPath><g clip-path="url(#a)"><path d="m44.9357 0h-40.91336c-.93975 0-1.84101.373315-2.50552 1.03782-.664501.6645-1.037816 1.56576-1.037816 2.50551v40.91337c0 .9397.373315 1.841 1.037816 2.5055.66451.6645 1.56577 1.0378 2.50552 1.0378h40.91336c.9397 0 1.841-.3733 2.5055-1.0378s1.0378-1.5658 1.0378-2.5055v-40.91337c0-.93975-.3733-1.84101-1.0378-2.50551-.6645-.664505-1.5658-1.03782-2.5055-1.03782zm-30.15 40.89h-7.21669v-22.9233h7.21669zm-3.6134-26.1c-.8186-.0046-1.61746-.2516-2.29583-.7098-.67836-.4582-1.20579-1.1071-1.51571-1.8648-.30993-.7577-.38846-1.5902-.22569-2.39249.16276-.80228.55954-1.53836 1.14024-2.11535.58071-.57699 1.31932-.96903 2.12259-1.12664.8033-.15761 1.6353-.07373 2.391.24105s1.4012.84636 1.855 1.52765c.4539.6813.6958 1.48176.6951 2.30038.0077.5481-.095 1.0921-.302 1.5996s-.514.9682-.9029 1.3545c-.3888.3864-.8514.6905-1.3602.8942-.5089.2037-1.0536.3029-1.6016.2917zm30.2134 26.12h-7.2134v-12.5233c0-3.6934-1.57-4.8334-3.5966-4.8334-2.14 0-4.24 1.6134-4.24 4.9267v12.43h-7.2167v-22.9267h6.94v3.1767h.0933c.6967-1.41 3.1367-3.82 6.86-3.82 4.0267 0 8.3767 2.39 8.3767 9.39z" fill="#0a66c2"/></g></svg>