<svg fill="none" height="48" viewBox="0 0 49 48" width="49" xmlns="http://www.w3.org/2000/svg" xmlns:xlink="http://www.w3.org/1999/xlink"><clipPath id="a"><path d="m.479004 0h48v48h-48z"/></clipPath><g clip-path="url(#a)"><path d="m24.479 0c-13.2562 0-23.999996 10.7438-23.999996 24 0 10.1719 6.328126 18.8531 15.253096 22.35-.2062-1.9031-.4031-4.8094.0844-6.8812.4406-1.875 2.8125-11.9251 2.8125-11.9251s-.7219-1.4343-.7219-3.5624c0-3.3375 1.9313-5.8313 4.3407-5.8313 2.0437 0 3.0375 1.5375 3.0375 3.3844 0 2.0625-1.3125 5.1375-1.9875 7.9875-.5625 2.3906 1.2 4.3406 3.5531 4.3406 4.2656 0 7.5469-4.5 7.5469-10.9875 0-5.7469-4.125-9.7687-10.0219-9.7687-6.825 0-10.8375 5.1187-10.8375 10.4156 0 2.0625.7969 4.275 1.7906 5.475.1969.2343.225.45.1688.6844-.1782.7593-.5907 2.3906-.6657 2.7187-.1031.4406-.3468.5344-.8062.3188-3-1.3969-4.87502-5.775-4.87502-9.3 0-7.575 5.50312-14.52192 15.85312-14.52192 8.325 0 14.7938 5.93442 14.7938 13.86562 0 8.2687-5.2125 14.925-12.45 14.925-2.4282 0-4.7157-1.2656-5.5032-2.7562 0 0-1.2 4.5843-1.4906 5.7093-.5437 2.0813-2.0062 4.6969-2.9812 6.2907 2.25.6937 4.6312 1.0687 7.1062 1.0687 13.2563 0 24-10.7438 24-24s-10.7437-24-24-24z" fill="#000"/></g></svg>