<svg fill="none" height="48" viewBox="0 0 49 48" width="49" xmlns="http://www.w3.org/2000/svg" xmlns:xlink="http://www.w3.org/1999/xlink"><clipPath id="a"><path d="m.479004 0h48v48h-48z"/></clipPath><g clip-path="url(#a)"><path d="m24.479 48c13.2548 0 24-10.7452 24-24s-10.7452-24-24-24-23.999996 10.7452-23.999996 24 10.745196 24 23.999996 24z" fill="#fff"/><path d="m24.479 0c-13.2543 0-23.999996 10.7457-23.999996 24 0 10.1728 6.320986 18.8642 15.249396 22.3605-.2173-1.8963-.3951-4.8198.079-6.8938.4346-1.8766 2.8049-11.9309 2.8049-11.9309s-.7111-1.442-.7111-3.5556c0-3.3382 1.9358-5.8271 4.3457-5.8271 2.0543 0 3.042 1.5407 3.042 3.3778 0 2.0543-1.3037 5.1358-1.9951 8-.5728 2.3901 1.205 4.3456 3.5556 4.3456 4.2666 0 7.5457-4.5037 7.5457-10.9827 0-5.7481-4.1284-9.758-10.0346-9.758-6.8346 0-10.8445 5.1161-10.8445 10.4099 0 2.0543.7902 4.2666 1.7778 5.4716.1975.237.2173.4543.158.6913-.1777.7507-.5925 2.3902-.6716 2.726-.0987.4345-.3555.5333-.8098.316-3.0025-1.4025-4.87905-5.7679-4.87905-9.3037 0-7.5654 5.49135-14.5185 15.86175-14.5185 8.316 0 14.795 5.9259 14.795 13.8667 0 8.2765-5.2148 14.9333-12.4444 14.9333-2.4296 0-4.721-1.2642-5.4914-2.7654 0 0-1.2049 4.5827-1.5012 5.7086-.5333 2.0938-1.9951 4.7012-2.9827 6.3012 2.2518.6914 4.6222 1.0667 7.1111 1.0667 13.2543 0 24-10.7457 24-24 .0395-13.2938-10.7062-24.0395-23.9605-24.0395z" fill="#e60019"/></g></svg>