<svg fill="none" height="48" viewBox="0 0 49 48" width="49" xmlns="http://www.w3.org/2000/svg"><g fill="#000"><path d="m37.1389 33.919c.5552-.148 1.2131-.3234 2.0189-.7688.9369-.5221.4056-.8426.0906-1.0001-5.3316-2.5787-6.1814-6.5667-6.2192-6.867-.0016-.0121-.0031-.0242-.0047-.0361-.0441-.3414-.0796-.6162.302-.9684.2591-.24 1.1235-.8006 1.7976-1.2377.3171-.2056.592-.3839.742-.4887.7768-.5423 1.1163-1.0837.8647-1.7493-.1759-.4578-.6025-.6338-1.0556-.6338-.1423.0004-.2842.0163-.4231.0475-.5019.109-.9953.3021-1.4139.4659-.2914.1141-.5466.2139-.743.2613-.0575.0148-.1166.0228-.176.0238-.2551 0-.3474-.1136-.3272-.4209.0021-.0324.0043-.0659.0065-.1005.0618-.9574.1749-2.708.0331-4.3471-.1997-2.3365-.9527-3.4942-1.8473-4.5181-.4293-.4903-2.4516-2.61469-6.309-2.61469-3.8573 0-5.8744 2.13319-6.3037 2.62529-.8937 1.0239-1.6458 2.1815-1.8473 4.5181-.135 1.5612-.0344 3.223.0251 4.2053.0052.0862.0101.1671.0145.2423.0176.2923-.0721.4208-.3272.4208-.0594-.001-.1184-.009-.176-.0238-.1958-.0472-.4503-.1469-.7411-.2608-.4186-.1639-.9125-.3572-1.4149-.4663-.1389-.0312-.2808-.0471-.4231-.0476-.4504 0-.8797.1735-1.0556.6339-.2516.6656.0897 1.207.8655 1.7493.1502.1049.4257.2836.7433.4896.6739.4372 1.5375.9975 1.7963 1.2368.3814.3527.3459.628.3018.9701-.0015.0114-.003.0229-.0044.0344-.0379.2958-.8885 4.2839-6.21928 6.8669-.31228.1514-.8436.4719.09325.9896.80383.4421 1.46053.6166 2.01513.764.4603.1223.8502.2259 1.1957.4482.3491.2252.3981.5912.4435.9311.0387.2887.0748.5585.2901.7073.2505.1728.7134.1906 1.3367.2145.8148.0312 1.9035.0729 3.1496.4854.6255.2063 1.169.5406 1.7412.8925 1.1178.6874 2.3451 1.4422 4.5071 1.4422 2.1699 0 3.4102-.7618 4.5306-1.45.5674-.3485 1.104-.6781 1.715-.8803 1.2485-.4125 2.3371-.4542 3.1512-.4854.6228-.0239 1.085-.0416 1.3351-.2145.2158-.1488.2517-.4187.2901-.7074.0453-.3399.094-.7058.4436-.931.3442-.2218.733-.3255 1.1918-.4478z"/><path clip-rule="evenodd" d="m11.0259 0c-5.8249 0-10.546896 4.722-10.546896 10.5469v26.9062c0 5.8249 4.721996 10.5469 10.546896 10.5469h26.9062c5.8249 0 10.5469-4.722 10.5469-10.5469v-26.9062c0-5.8249-4.722-10.5469-10.5469-10.5469zm29.3309 30.5636c.519.2888.9747.6374 1.214 1.2889.2683.7289.1038 1.5547-.5507 2.2555l-.0088.0106c-.2641.2925-.5765.5373-.9237.7236-.6887.3785-1.4214.6707-2.1815.8698-.1456.039-.2835.1021-.4082.1867-.1302.1152-.1843.2587-.2516.4374-.051.1352-.1096.2907-.2146.4694-.1802.3144-.4278.585-.7249.7923-.7107.4913-1.5095.5221-2.3557.5546l-.0028.0001c-.7638.0291-1.6293.062-2.6177.3891-.3985.132-.8216.3917-1.3116.6928l-.0034.0021c-1.1935.7314-2.8265 1.7323-5.5385 1.7323-2.7147 0-4.3368-.9975-5.5217-1.7265-.4935-.3063-.9192-.5687-1.3292-.7043-.9896-.3266-1.8561-.36-2.6205-.3891-.8462-.0326-1.645-.0634-2.3557-.5546-.2509-.1743-.4669-.3941-.6369-.648-.1651-.2394-.2411-.4418-.3051-.6121-.0674-.1793-.1214-.3231-.2518-.4373-.1329-.0888-.2798-.1546-.4345-.1945-.7499-.1986-1.47276-.488-2.15256-.8619-.32671-.174-.62365-.399-.87967-.6665-.69757-.7166-.87702-1.567-.60257-2.3145.31082-.8453.98429-1.1833 1.69068-1.5379.12129-.0608.24355-.1222.3651-.1867 1.56582-.8513 2.79202-1.9148 3.64882-3.1694.2443-.3539.4565-.729.6343-1.1207.0836-.2289.0818-.353.0255-.4683-.0603-.0942-.1401-.1744-.234-.2351-.2683-.1778-.5419-.3557-.7292-.4772-.0719-.0471-.1407-.092-.2062-.1348-.2503-.1637-.4522-.2957-.5917-.3934-.6641-.4648-1.1286-.9587-1.4198-1.5107-.2021-.3821-.3197-.8032-.3448-1.2348-.025-.4315.0431-.8634.1997-1.2663.438-1.1586 1.5332-1.8779 2.8589-1.8779.2794-.0002.5581.0293.8313.0881.073.0158.1451.0325.2164.051-.0115-.7879.0061-1.6287.0765-2.4518.2498-2.8912 1.2623-4.4107 2.3179-5.6203.6766-.76011 1.4745-1.40269 2.3611-1.90163 1.6036-.91558 3.4113-1.38042 5.3914-1.38042 1.9802 0 3.7967.46484 5.3985 1.38042.8845.49879 1.6807 1.14008 2.3567 1.89813 1.0556 1.2096 2.0681 2.7265 2.3179 5.6203.0704.8231.088 1.6595.0756 2.4518.0713-.0185.1443-.0352.2173-.0511.2732-.0588.5519-.0883.8313-.088 1.3248 0 2.4182.7193 2.8581 1.8778.1558.4028.2232.8344.1976 1.2655-.0257.4311-.1438.8517-.3463 1.233-.2903.552-.7548 1.0459-1.4189 1.5108-.1768.1258-.4513.3037-.7979.5282-.1944.1259-.4812.3125-.7591.4965-.0831.0568-.1535.1302-.2067.2157-.0537.1109-.0572.2324.0175.4464.1802.4.396.7831.6448 1.1444.8762 1.2836 2.1394 2.3665 3.7571 3.2248.0824.0429.165.0845.2473.126.0749.0377.1495.0753.2233.1135.0766.0352.1663.081.2639.1382z" fill-rule="evenodd"/></g></svg>