<svg fill="none" height="48" viewBox="0 0 49 48" width="49" xmlns="http://www.w3.org/2000/svg"><path d="m.479004 10.5469c0-5.8249 4.721996-10.5469 10.546896-10.5469h26.9062c5.8249 0 10.5469 4.722 10.5469 10.5469v26.9062c0 5.8249-4.722 10.5469-10.5469 10.5469h-26.9062c-5.8249 0-10.546896-4.722-10.546896-10.5469z" fill="#fffc00"/><path d="m39.2511 32.1562c-5.3316-2.583-6.1814-6.5711-6.2192-6.8669-.0458-.3583-.0977-.64.2973-1.0045.3809-.3521 2.0707-1.3989 2.5396-1.7264.775-.5423 1.1163-1.0837.8647-1.7493-.1759-.4604-.6043-.6339-1.0556-.6339-.1423.0005-.2842.0164-.4231.0476-.8515.1849-1.6784.6118-2.1569.7272-.0575.0148-.1166.0228-.176.0237-.2551 0-.3518-.1135-.3272-.4208.0598-.9314.1865-2.7494.0396-4.4476-.2015-2.3365-.9545-3.4942-1.8473-4.5181-.4319-.4965-2.4376-2.62968-6.3081-2.62968-3.8706 0-5.8736 2.13318-6.3028 2.62348-.8955 1.0239-1.6476 2.1816-1.8473 4.5181-.1469 1.6982-.015 3.5153.0396 4.4477.0175.2922-.0722.4208-.3273.4208-.0594-.0011-.1184-.009-.1759-.0238-.4777-.1153-1.3046-.5423-2.1561-.7272-.1389-.0312-.2808-.0471-.4231-.0475-.453 0-.8797.176-1.0556.6338-.2516.6656.088 1.207.8656 1.7493.4689.3275 2.1587 1.3734 2.5396 1.7265.3941.3644.3431.6461.2973 1.0045-.0378.3002-.8884 4.2883-6.21923 6.8669-.31228.1514-.8436.4718.09325.9895 1.47078.8135 2.44988.7263 3.21078 1.2167.6457.4164.2639 1.3144.7336 1.6384.5771.3988 2.2828-.0282 4.4863.6999 1.8473.6092 2.9698 2.3303 6.2457 2.3303s4.4309-1.7291 6.2456-2.3303c2.1992-.7281 3.9084-.3011 4.4863-.6999.4689-.324.088-1.222.7337-1.6384.7609-.4904 1.7391-.4032 3.2107-1.2167.9351-.5115.4038-.8319.0915-.9834z" fill="#fff"/><path d="m41.5708 31.8525c-.2393-.6515-.695-1.0001-1.214-1.2889-.0976-.0572-.1874-.103-.2639-.1382-.1548-.0801-.3131-.1576-.4706-.2395-1.6177-.8583-2.8809-1.9412-3.7571-3.2248-.2488-.3613-.4646-.7444-.6448-1.1444-.0747-.214-.0712-.3355-.0175-.4464.0532-.0855.1236-.1589.2067-.2157.2779-.184.5647-.3706.7591-.4965.3466-.2245.6211-.4023.7979-.5282.6641-.4649 1.1286-.9588 1.4189-1.5108.2025-.3813.3206-.8019.3463-1.233.0256-.4311-.0418-.8627-.1977-1.2655-.4398-1.1585-1.5332-1.8778-2.858-1.8778-.2794-.0003-.5581.0292-.8313.088-.073.0159-.146.0326-.2173.0511.0124-.7923-.0052-1.6287-.0756-2.4518-.2498-2.8938-1.2623-4.4107-2.3179-5.6203-.676-.75805-1.4722-1.39934-2.3567-1.89813-1.6018-.91558-3.4183-1.38042-5.3985-1.38042-1.9801 0-3.7878.46484-5.3914 1.38042-.8867.49894-1.6845 1.14152-2.3611 1.90163-1.0556 1.2096-2.0681 2.7291-2.3179 5.6203-.0704.8231-.088 1.6639-.0765 2.4518-.0713-.0185-.1434-.0352-.2164-.051-.2732-.0588-.5519-.0883-.8313-.0881-1.3257 0-2.4209.7193-2.8589 1.8779-.1566.4029-.2247.8348-.1997 1.2663.0251.4316.1427.8527.3448 1.2348.2912.552.7557 1.0459 1.4198 1.5107.1759.1233.4513.3011.7979.5282.1873.1215.4609.2994.7292.4772.0939.0607.1737.1409.234.2351.0563.1153.0581.2394-.0255.4683-.1778.3917-.39.7668-.6343 1.1207-.8568 1.2546-2.083 2.3181-3.64882 3.1694-.82952.4402-1.69159.7342-2.05578 1.7246-.27445.7475-.095 1.5979.60257 2.3145.25602.2675.55296.4925.87967.6665.6798.3739 1.40266.6633 2.15256.8619.1547.0399.3016.1057.4345.1945.2543.2228.2182.5582.5569 1.0494.17.2539.386.4737.6368.648.7108.4912 1.5096.522 2.3558.5546.7644.0291 1.6309.0625 2.6205.3891.4099.1356.8357.398 1.3292.7043 1.1849.729 2.807 1.7265 5.5217 1.7265 2.7146 0 4.3482-1.0028 5.5419-1.7344.4899-.3011.9131-.5608 1.3116-.6928.9896-.3275 1.8561-.3601 2.6205-.3892.8462-.0325 1.645-.0633 2.3557-.5546.2971-.2073.5447-.4779.7249-.7923.2436-.4147.2375-.7043.4662-.9068.1247-.0846.2626-.1477.4082-.1867.7601-.1991 1.4928-.4913 2.1815-.8698.3471-.1863.6596-.4311.9237-.7236l.0088-.0106c.6545-.7008.819-1.5266.5507-2.2555zm-2.413 1.2977c-1.4717.8134-2.4498.7263-3.2108 1.2166-.6465.4165-.2639 1.3144-.7336 1.6384-.5771.3988-2.2827-.0282-4.4863.6999-1.8174.6013-2.9768 2.3304-6.2456 2.3304-3.2689 0-4.401-1.7256-6.2483-2.3348-2.1992-.7281-3.9084-.3011-4.4863-.6999-.4689-.324-.088-1.222-.7336-1.6384-.7618-.4903-1.74-.4032-3.21083-1.2122-.93685-.5177-.40553-.8382-.09325-.9896 5.33078-2.583 6.18138-6.5711 6.21928-6.8669.0457-.3583.0967-.64-.2974-1.0045-.3809-.3521-2.0707-1.3989-2.5396-1.7264-.7758-.5423-1.1171-1.0837-.8655-1.7493.1759-.4604.6052-.6339 1.0556-.6339.1423.0005.2842.0164.4231.0476.8515.1848 1.6784.6118 2.156.7272.0575.0147.1166.0227.176.0237.2551 0 .3448-.1285.3272-.4208-.0545-.9323-.1865-2.7494-.0396-4.4476.2015-2.3366.9536-3.4942 1.8473-4.5181.4293-.4921 2.4464-2.62529 6.3037-2.62529s5.8797 2.12439 6.309 2.61469c.8946 1.0239 1.6476 2.1816 1.8473 4.5181.1469 1.6982.0202 3.5162-.0396 4.4476-.0202.3073.0721.4209.3272.4209.0594-.001.1185-.009.176-.0238.4785-.1153 1.3054-.5423 2.1569-.7272.1389-.0312.2808-.0471.4231-.0475.4531 0 .8797.176 1.0556.6338.2516.6656-.0879 1.207-.8647 1.7493-.4688.3275-2.1587 1.3734-2.5396 1.7264-.395.3645-.3431.6462-.2973 1.0045.0378.3003.8876 4.2883 6.2192 6.867.315.1575.8463.478-.0906 1.0001z" fill="#000"/></svg>