<svg fill="none" height="48" viewBox="0 0 49 48" width="49" xmlns="http://www.w3.org/2000/svg"><path d="m45.0734 35.3618c-7.4331-3.5982-8.6178-9.1537-8.6705-9.5658-.0638-.4991-.1362-.8916.4145-1.3993.531-.4905 2.8869-1.9487 3.5406-2.4049 1.0804-.7555 1.5562-1.5097 1.2055-2.4368-.2453-.6414-.8425-.883-1.4717-.883-.1984.0006-.3962.0228-.5899.0662-1.1871.2575-2.3399.8523-3.0071 1.013-.0801.0207-.1624.0318-.2452.0331-.3557 0-.4906-.1582-.4562-.5862.0834-1.2975.2599-3.83.0551-6.1957-.2808-3.25483-1.3306-4.86753-2.5754-6.29381-.6021-.69168-3.3983-3.66321-8.7944-3.66321s-8.1885 2.97153-8.787 3.65462c-1.2485 1.42629-2.297 3.03898-2.5754 6.2938-.2048 2.3657-.0209 4.897.0552 6.1957.0245.4072-.1006.5862-.4562.5862-.0828-.0014-.1651-.0125-.2453-.0331-.6659-.1607-1.8187-.7555-3.00588-1.013-.19365-.0434-.39144-.0656-.58989-.0662-.63159 0-1.22638.2453-1.47166.883-.35075.9271.12264 1.6813 1.20676 2.4368.65366.4562 3.00957 1.9132 3.54057 2.4049.5494.5078.4783.9002.4145 1.3993-.0527.4182-1.2386 5.9738-8.67052 9.5658-.43536.211-1.1761.6574.13 1.3785 2.05051 1.1332 3.41548 1.0118 4.4763 1.6949.90017.58.36792 1.8309 1.02281 2.2823.80451.5555 3.18251-.0393 6.25451.9749 2.5755.8487 4.1403 3.2463 8.7074 3.2463 4.567 0 6.1773-2.4087 8.7073-3.2463 3.066-1.0142 5.4488-.4194 6.2546-.9749.6536-.4514.1226-1.7023 1.0228-2.2823 1.0608-.6831 2.4245-.5617 4.4763-1.6949 1.3036-.7125.5629-1.1589.1275-1.3699z" fill="#fff"/><path d="m48.3074 34.9387c-.3336-.9075-.9688-1.3931-1.6924-1.7954-.1361-.0797-.2612-.1435-.3679-.1925-.2159-.1116-.4366-.2196-.6561-.3336-2.2554-1.1957-4.0164-2.7042-5.2379-4.4923-.3469-.5033-.6478-1.0369-.899-1.5943-.1042-.298-.0993-.4672-.0245-.6217.0742-.1191.1724-.2214.2882-.3005.3876-.2563.7873-.5163 1.0584-.6917.4832-.3127.8658-.5604 1.1123-.7358.9259-.6475 1.5735-1.3355 1.9782-2.1045.2823-.5312.447-1.1171.4828-1.7176.0357-.6006-.0583-1.2019-.2756-1.7629-.6132-1.6139-2.1376-2.6158-3.9845-2.6158-.3896-.0004-.7781.0407-1.1589.1226-.1018.0221-.2036.0454-.3029.0711.0171-1.1037-.0074-2.2688-.1055-3.4155-.3483-4.03108-1.7599-6.14413-3.2315-7.82919-.9424-1.05592-2.0525-1.94926-3.2855-2.64408-2.2333-1.27544-4.7657-1.922969-7.5263-1.922969s-5.2808.647529-7.5165 1.922969c-1.2361.69503-2.3484 1.59016-3.2917 2.64899-1.4716 1.68505-2.8832 3.80179-3.2315 7.82928-.0981 1.1466-.1226 2.3178-.1067 3.4154-.0993-.0257-.1999-.049-.3017-.0711-.38083-.0819-.76933-.123-1.1589-.1226-1.84816 0-3.37501 1.0019-3.98575 2.6158-.2183.5613-.31322 1.163-.2783 1.7642s.19885 1.1878.48066 1.72c.40593.7689 1.05346 1.4569 1.97938 2.1045.24528.1717.62914.4194 1.11233.7358.26122.1692.64263.417 1.01667.6647.13087.0846.24211.1963.32622.3274.07849.1607.08094.3336-.03556.6525-.24781.5456-.54372 1.0681-.88423 1.5612-1.19449 1.7476-2.90407 3.229-5.08704 4.415-1.15648.6131-2.35833 1.0228-2.866055 2.4024-.382631 1.0412-.132449 2.2259.840075 3.2242.35692.3726.7709.686 1.22638.9284.94774.5208 1.95551.924 3.00096 1.2006.21575.0556.42056.1473.60584.271.35442.3103.30414.7776.7763 1.4619.23701.3537.53817.6598.8879.9026.99092.6843 2.10452.7272 3.28422.7726 1.0658.0405 2.2738.0871 3.6534.5421.5715.1888 1.1651.5543 1.8531.9811 1.6519 1.0154 3.9134 2.4049 7.698 2.4049s6.062-1.3968 7.7262-2.4159c.6831-.4195 1.273-.7813 1.8286-.9652 1.3797-.4562 2.5876-.5016 3.6534-.5421 1.1797-.0453 2.2933-.0883 3.2842-.7726.4142-.2888.7593-.6657 1.0106-1.1037.3397-.5777.3311-.9811.6499-1.2632.1739-.1179.3662-.2058.5691-.26 1.0597-.2775 2.0812-.6844 3.0414-1.2117.4839-.2596.9195-.6006 1.2877-1.0081l.0123-.0147c.9124-.9762 1.1417-2.1265.7677-3.142zm-3.364 1.8077c-2.0517 1.1332-3.4154 1.0118-4.4763 1.6949-.9014.5801-.3679 1.831-1.0228 2.2823-.8045.5555-3.1824-.0393-6.2545.975-2.5337.8376-4.1501 3.2462-8.7074 3.2462-4.5572 0-6.1356-2.4037-8.711-3.2524-3.0659-1.0142-5.4488-.4194-6.25452-.975-.65366-.4513-.12264-1.7022-1.0228-2.2823-1.06205-.6831-2.42579-.5616-4.4763-1.6887-1.3061-.7211-.56537-1.1675-.13-1.3784 7.43192-3.5982 8.61782-9.1538 8.67052-9.5658.0638-.4992.1349-.8916-.4145-1.3993-.531-.4906-2.88691-1.9488-3.54058-2.405-1.08167-.7554-1.5575-1.5097-1.20676-2.4368.24528-.6414.84375-.883 1.47166-.883.19845.0006.39625.0228.58989.0662 1.18719.2576 2.33999.8524 3.00589 1.013.0802.0206.1625.0317.2453.0331.3556 0 .4807-.179.4562-.5862-.0761-1.2987-.26-3.83-.0552-6.1957.2808-3.25479 1.3294-4.86749 2.5754-6.29377.5985-.68555 3.4106-3.65708 8.7883-3.65708s8.1971 2.95927 8.7956 3.64236c1.2472 1.42629 2.297 3.03898 2.5754 6.29379.2048 2.3657.0282 4.8982-.0552 6.1957-.0282.428.1006.5862.4562.5862.0828-.0013.1651-.0124.2453-.0331.6671-.1607 1.8199-.7554 3.0071-1.013.1936-.0434.3914-.0656.5899-.0662.6316 0 1.2264.2453 1.4716.883.3508.9271-.1226 1.6814-1.2055 2.4368-.6537.4562-3.0095 1.9132-3.5406 2.4049-.5506.5078-.4783.9002-.4145 1.3994.0528.4181 1.2374 5.9737 8.6705 9.5657.4391.2196 1.1798.666-.1263 1.3932z" fill="#000"/></svg>