<svg fill="none" height="48" viewBox="0 0 49 48" width="49" xmlns="http://www.w3.org/2000/svg"><path d="m48.3055 34.9395c-.331-.907-.9683-1.3973-1.6915-1.7895-.1348-.0736-.2574-.1471-.3677-.1962-.2207-.1103-.4413-.2206-.6619-.3309-2.2553-1.2012-4.0204-2.6966-5.2338-4.4861-.3432-.5026-.6497-1.0419-.8948-1.5935-.1103-.2941-.0981-.4657-.0245-.6251.0735-.1225.1716-.2206.2941-.3064.3923-.2574.7845-.5148 1.0542-.6864.478-.3187.8702-.5638 1.1154-.7354.9193-.6497 1.5689-1.3361 1.9734-2.1083.5761-1.0786.6496-2.3411.2083-3.481-.6128-1.618-2.1327-2.6108-3.9835-2.6108-.3923 0-.7722.0368-1.1645.1226-.098.0245-.2083.049-.3064.0735.0123-1.1031-.0123-2.2676-.1103-3.4197-.3432-4.03264-1.765-6.14087-3.2359-7.82011-.9438-1.05411-2.047-1.94889-3.2849-2.64755-2.2308-1.27474-4.7681-1.924372-7.5259-1.924372-2.7579 0-5.2829.649632-7.5137 1.924372-1.238.69866-2.3411 1.59344-3.2849 2.64755-1.4709 1.67924-2.8804 3.79973-3.2359 7.82011-.0981 1.1521-.1226 2.3166-.1103 3.4197-.0981-.0245-.1961-.049-.3064-.0735-.38002-.0858-.77225-.1226-1.15222-.1226-1.85084 0-3.37073 1.0051-3.98359 2.6108-.44125 1.1399-.36771 2.4024.20838 3.481.40448.7722 1.05411 1.4586 1.9734 2.1083.24515.1716.62512.4167 1.11541.7354.2574.1716.63737.4167 1.01734.6619.13483.0858.24514.1961.33094.3309.07355.1594.0858.331-.03677.6497-.24514.5393-.53931 1.0663-.88251 1.5566-1.18895 1.7405-2.90496 3.2237-5.08673 4.4126-1.15218.6129-2.35338 1.0173-2.868182 2.4024-.379973 1.0419-.134829 2.2186.833492 3.2236.35545.3678.7722.6864 1.22571.9316.94381.5148 1.9489.9193 3.00301 1.2012.22063.0613.41675.1471.6006.2697.35546.3064.30643.7722.77221 1.4586.23288.3554.53931.6618.88251.907.99283.6864 2.1082.7232 3.2849.7722 1.0664.0368 2.2676.0858 3.6527.5393.5761.1839 1.1644.5516 1.8508.9806 1.6547 1.0173 3.91 2.4024 7.6975 2.4024s6.0551-1.3973 7.722-2.4147c.6864-.4167 1.2748-.7844 1.8263-.9683 1.3728-.4535 2.5863-.5025 3.6527-.5393 1.1767-.049 2.2921-.0858 3.2849-.7722.4168-.2942.76-.6619 1.0051-1.1032.3432-.576.3309-.9805.6496-1.2624.1716-.1226.3677-.2084.5639-.2574 1.0541-.282 2.0837-.6865 3.0397-1.2135.4781-.2574.9193-.6006 1.287-1.0051l.0123-.0123c.9561-.9805 1.1889-2.1327.809-3.1378zm-3.3585 1.8018c-2.0469 1.1277-3.4197 1.0051-4.4739 1.6915-.907.5761-.3677 1.8263-1.0173 2.2798-.809.5516-3.1869-.0367-6.2512.9806-2.5372.8335-4.1429 3.2482-8.7026 3.2482-4.5596 0-6.1286-2.4024-8.7026-3.2482-3.0643-1.0173-5.4421-.4167-6.25112-.9806-.64963-.4535-.12257-1.7037-1.01735-2.2798-1.06637-.6864-2.42692-.5638-4.47387-1.6915-1.31151-.7232-.56383-1.1644-.13483-1.3728 7.42787-3.5913 8.61677-9.1438 8.66587-9.5606.0612-.5025.1348-.8948-.4168-1.3973-.527-.4903-2.88042-1.9489-3.54231-2.4024-1.07863-.76-1.55666-1.5076-1.2012-2.4392.24514-.6374.84574-.8825 1.47086-.8825.19611 0 .39223.0245.58834.0613 1.18891.2574 2.34111.8457 3.00301 1.0173.0858.0245.1593.0368.2451.0368.3555 0 .4781-.1839.4536-.5884-.0736-1.2992-.2574-3.8242-.0491-6.1898.2819-3.24818 1.3238-4.86613 2.574-6.28796.6006-.6864 3.4075-3.65264 8.7884-3.65264s8.1878 2.95398 8.7884 3.64038c1.2503 1.42184 2.2921 3.03978 2.574 6.28792.2084 2.3657.0246 4.8906-.0612 6.1899-.0246.429.098.5883.4535.5883.0858 0 .1593-.0122.2451-.0367.6619-.1594 1.8141-.76 3.003-1.0174.1961-.049.3922-.0613.5884-.0613.6251 0 1.2257.2452 1.4708.8825.3555.9316-.1225 1.6793-1.2012 2.4392-.6496.4535-3.003 1.9121-3.5423 2.4024-.5516.5026-.478.8948-.4167 1.3974.049.4167 1.2379 5.9692 8.6658 9.5606.4412.2083 1.1767.6618-.1226 1.385z" fill="#000"/></svg>