<svg fill="none" height="48" viewBox="0 0 48 48" width="48" xmlns="http://www.w3.org/2000/svg" xmlns:xlink="http://www.w3.org/1999/xlink"><clipPath id="a"><path d="m0 0h48v48h-48z"/></clipPath><g clip-path="url(#a)"><path d="m15.1003 43.5c18.1088 0 28.0163-15.0065 28.0163-28.0162 0-.4219-.0094-.8531-.0282-1.275 1.9274-1.3938 3.5906-3.1202 4.9116-5.09814-1.795.7986-3.7007 1.32014-5.6522 1.54684 2.0548-1.23162 3.5933-3.1665 4.3303-5.44591-1.933 1.14559-4.0469 1.95369-6.2512 2.38969-1.4852-1.5781-3.4489-2.62299-5.5875-2.97312s-4.333.014-6.2439 1.03609c-1.9109 1.0221-3.4319 2.64522-4.3278 4.61845-.8959 1.9732-1.1168 4.1866-.6286 6.298-3.9141-.1965-7.7432-1.2132-11.2391-2.9844-3.49595-1.7713-6.58061-4.25737-9.05406-7.29721-1.25714 2.16746-1.64183 4.73231-1.07588 7.17311.56595 2.4409 2.04007 4.5748 4.12275 5.9678-1.56355-.0496-3.09286-.4706-4.46156-1.2281v.1219c-.0014 2.2746.78495 4.4794 2.22537 6.2398s3.44603 2.9676 5.67588 3.4164c-1.44839.3963-2.96854.4541-4.44281.1688.62922 1.9561 1.85346 3.667 3.50185 4.8939 1.64836 1.2269 3.63866 1.9086 5.69316 1.9498-3.4879 2.7398-7.79635 4.2258-12.23157 4.2188-.78656-.0012-1.572332-.0494-2.35313-.1444 4.50571 2.8907 9.74706 4.4259 15.1003 4.4231z" fill="#000"/></g></svg>