<svg fill="none" height="40" viewBox="0 0 48 40" width="48" xmlns="http://www.w3.org/2000/svg" xmlns:xlink="http://www.w3.org/1999/xlink"><clipPath id="a"><path d="m0 .498566h48v39.0029h-48z"/></clipPath><g clip-path="url(#a)"><path d="m15.095 39.5014c18.1133 0 28.0205-15.0068 28.0205-28.0205 0-.4263 0-.8506-.0288-1.273 1.9274-1.39406 3.5911-3.1202 4.9133-5.09757-1.7972.7968-3.7039 1.31911-5.6563 1.54944 2.0559-1.23062 3.5946-3.16644 4.3296-5.44704-1.9331 1.14721-4.048 1.95565-6.2535 2.3904-1.4848-1.57885-3.4486-2.62432-5.5874-2.974634-2.1389-.350313-4.3336.014061-6.2445 1.036734-1.9109 1.02268-3.4315 2.64664-4.3264 4.62059-.895 1.97395-1.1144 4.18788-.6244 6.29908-3.9153-.1964-7.7456-1.2139-11.2422-2.98656-3.49659-1.77262-6.58137-4.26069-9.0541-7.30273-1.25934 2.16799-1.64506 4.73445-1.0786 7.17684.56645 2.44235 2.04248 4.57705 4.12756 5.96935-1.5673-.0459-3.10046-.4687-4.46976-1.2326v.1248c.00062 2.2737.7877 4.4772 2.22774 6.2367 1.44004 1.7596 3.44438 2.9668 5.67306 3.4171-1.44984.3954-2.97105.4532-4.44672.1689.62955 1.9567 1.85478 3.6677 3.5044 4.8939s3.64122 1.9063 5.69622 1.9452c-2.0418 1.6049-4.3801 2.7915-6.88095 3.492-2.50088.7004-5.11532.9008-7.69375.5899 4.50367 2.89 9.74385 4.423 15.095 4.416" fill="#1da1f2"/></g></svg>