<svg fill="none" height="48" viewBox="0 0 34 48" width="34" xmlns="http://www.w3.org/2000/svg"><path clip-rule="evenodd" d="m24.479 0h-15.33333c-2.29854 0-4.50294.913092-6.12826 2.53841-1.62531 1.62531-2.538406 3.82971-2.538406 6.12826v1h.057854c.224181 1.93033 1.092722 3.74043 2.480552 5.12823.62025.6203 1.32483 1.1368 2.08679 1.5384-.76196.4017-1.46654.9182-2.08679 1.5385-1.62531 1.6253-2.538406 3.8297-2.538406 6.1282v1h.057854c.224181 1.9304 1.092722 3.7404 2.480552 5.1283.62024.6202 1.32481 1.1367 2.08676 1.5384-.76195.4016-1.46652.9181-2.08676 1.5384-1.62531 1.6253-2.538406 3.8297-2.538406 6.1282v1h.057854c.224181 1.9304 1.092722 3.7404 2.480552 5.1283 1.62532 1.6253 3.82972 2.5384 6.12826 2.5384 2.29853 0 4.50293-.9131 6.12823-2.5384s2.5384-3.8297 2.5384-6.1283v-9.7956c.1697.2042.3492.4013.5385.5906 1.6253 1.6253 3.8297 2.5384 6.1282 2.5384 2.2986 0 4.503-.9131 6.1283-2.5384s2.5384-3.8297 2.5384-6.1283c0-2.2985-.9131-4.5029-2.5384-6.1282-.6202-.6203-1.3248-1.1368-2.0868-1.5385.762-.4016 1.4666-.9181 2.0868-1.5384 1.6253-1.6253 2.5384-3.8297 2.5384-6.12823 0-2.29855-.9131-4.50295-2.5384-6.12826-1.6253-1.625318-3.8297-2.53841-6.1283-2.53841zm-6.6667 18.4623c.1697-.2042.3492-.4013.5385-.5905.1892-.1893.3863-.3689.5905-.5385h-1.129zm-2 12.2044v-13.3334h-6.66663c-1.76811 0-3.4638.7024-4.71404 1.9527-1.25025 1.2502-1.95263 2.9459-1.95263 4.714s.70238 3.4638 1.95263 4.7141c1.24727 1.2472 2.93789 1.9492 4.70146 1.9526h.01258zm0 2h-6.66663c-.00438 0-.00876 0-.01314 0-1.76337.0034-3.45376.7054-4.7009 1.9526-1.25025 1.2502-1.95263 2.9459-1.95263 4.714s.70238 3.4638 1.95263 4.7141c1.25024 1.2502 2.94593 1.9526 4.71404 1.9526 1.76813 0 3.46383-.7024 4.71403-1.9526 1.2503-1.2503 1.9526-2.946 1.9526-4.7141zm2.0001-30.6667h6.6666c1.7682 0 3.4638.70238 4.7141 1.95262 1.2502 1.25024 1.9526 2.94594 1.9526 4.71405 0 1.76813-.7024 3.46383-1.9526 4.71403-1.2503 1.2503-2.9459 1.9526-4.7141 1.9526h-6.6666zm6.6666 15.3333c-1.7681 0-3.4638.7024-4.714 1.9527-1.2502 1.2502-1.9526 2.9459-1.9526 4.714s.7024 3.4638 1.9526 4.7141c1.2502 1.2502 2.9459 1.9526 4.714 1.9526 1.7682 0 3.4638-.7024 4.7141-1.9526 1.2502-1.2503 1.9526-2.946 1.9526-4.7141s-.7024-3.4638-1.9526-4.714c-1.2503-1.2503-2.9459-1.9527-4.7141-1.9527zm-22-8.66663c0 1.76813.70238 3.46383 1.95263 4.71403 1.25024 1.2503 2.94593 1.9526 4.71404 1.9526h6.66663v-13.3333h-6.66663c-1.76811 0-3.4638.70238-4.71404 1.95262-1.25025 1.25024-1.95263 2.94594-1.95263 4.71405z" fill="#000" fill-rule="evenodd"/></svg>