<svg fill="none" height="48" viewBox="0 0 49 48" width="49" xmlns="http://www.w3.org/2000/svg" xmlns:xlink="http://www.w3.org/1999/xlink"><clipPath id="a"><path d="m.047607 0h48v48h-48z"/></clipPath><g clip-path="url(#a)"><path d="m24.0476 48c13.2548 0 24-10.7452 24-24s-10.7452-24-24-24-23.9999926 10.7452-23.9999926 24 10.7451926 24 23.9999926 24z" fill="#ff0302"/><path d="m39.3805 16.2469c-.3656-1.3875-1.4437-2.4703-2.8312-2.85-2.4938-.6703-12.5016-.6703-12.5016-.6703s-10.0078 0-12.5016.6703c-1.3828.375-2.46091 1.4625-2.83122 2.85-.66562 2.5125-.66562 7.7531-.66562 7.7531s0 5.2406.67031 7.7531c.37031 1.3875 1.44373 2.4703 2.83123 2.85 2.4938.6703 12.5016.6703 12.5016.6703s10.0078 0 12.5015-.6703c1.3829-.375 2.461-1.4625 2.8313-2.85.6703-2.5125.6703-7.7531.6703-7.7531s-.0094-5.2406-.675-7.7531zm-18.6047 12.5109v-9.5156l8.3625 4.7578z" fill="#fff"/></g></svg>