<svg fill="none" height="34" viewBox="0 0 49 34" width="49" xmlns="http://www.w3.org/2000/svg" xmlns:xlink="http://www.w3.org/1999/xlink"><clipPath id="a"><path d="m.047607.090912h48v33.8182h-48z"/></clipPath><g clip-path="url(#a)"><path d="m47.044 5.37091c-.2714-1.02117-.8062-1.95316-1.551-2.70269-.7447-.74953-1.6733-1.29031-2.6927-1.56822-3.7527-1.009088-18.7527-1.0090881-18.7527-1.0090881s-14.99999.0000001-18.75272 1.0090881c-1.01941.27791-1.94795.81869-2.6927 1.56822-.74474.74953-1.27956 1.68152-1.55094 2.70269-1.0036325 3.76909-1.0036326 11.62909-1.0036326 11.62909s.0000001 7.86 1.0036326 11.6291c.27138 1.0212.8062 1.9531 1.55094 2.7027.74475.7495 1.67329 1.2903 2.6927 1.5682 3.75273 1.0091 18.75272 1.0091 18.75272 1.0091s15 0 18.7527-1.0091c1.0194-.2779 1.948-.8187 2.6927-1.5682.7448-.7496 1.2796-1.6815 1.551-2.7027 1.0036-3.7691 1.0036-11.6291 1.0036-11.6291s0-7.86-1.0036-11.62909z" fill="#ff0302"/><path d="m19.1385 24.1373v-14.27451l12.5455 7.13731z" fill="#fefefe"/></g></svg>