<svg fill="none" height="48" viewBox="0 0 49 48" width="49" xmlns="http://www.w3.org/2000/svg" xmlns:xlink="http://www.w3.org/1999/xlink"><clipPath id="a"><path d="m.047607 0h48v48h-48z"/></clipPath><g clip-path="url(#a)" fill="#000"><path d="m20.7746 28.7578 8.3639-4.7578-8.3639-4.7578z"/><path d="m24.0476 0c-13.2548 0-23.9999926 10.7452-23.9999926 24s10.7451926 24 23.9999926 24c13.2549 0 24-10.7452 24-24s-10.7451-24-24-24zm15.3314 31.7522c-.1808.6809-.5374 1.3023-1.0339 1.8021-.4966.4998-1.1157.8603-1.7955 1.0455-2.4951.6727-12.502.6727-12.502.6727s-10.0069 0-12.502-.6727c-.6797-.1852-1.2989-.5457-1.79545-1.0455s-.8531-1.1212-1.03395-1.8021c-.66844-2.5116-.66844-7.7522-.66844-7.7522s0-5.2406.66844-7.7522c.18085-.6809.5374-1.3023 1.03395-1.8021s1.11575-.8603 1.79545-1.0455c2.4951-.6727 12.502-.6727 12.502-.6727s10.0069 0 12.502.6727c.6798.1852 1.2989.5457 1.7955 1.0455.4965.4998.8531 1.1212 1.0339 1.8021.6685 2.5116.6685 7.7522.6685 7.7522s0 5.2406-.6685 7.7522z"/></g></svg>