<svg fill="none" height="48" viewBox="0 0 49 48" width="49" xmlns="http://www.w3.org/2000/svg" xmlns:xlink="http://www.w3.org/1999/xlink"><clipPath id="a"><path d="m.047607 0h48v48h-48z"/></clipPath><g clip-path="url(#a)"><path d="m47.5695 14.4001s-.4688-3.3094-1.9125-4.7625c-1.8281-1.9125-3.8719-1.92188-4.8094-2.03438-6.7125-.4875-16.7906-.4875-16.7906-.4875h-.0188s-10.0781 0-16.79059.4875c-.9375.1125-2.98125.12188-4.80938 2.03438-1.443747 1.4531-1.903123 4.7625-1.903123 4.7625s-.4874996 3.8906-.4874996 7.7719v3.6375c0 3.8812.4781246 7.7718.4781246 7.7718s.46875 3.3094 1.903128 4.7625c1.82812 1.9125 4.22812 1.8469 5.29687 2.0532 3.84377.3656 16.32187.4781 16.32187.4781s10.0875-.0188 16.8-.4969c.9375-.1125 2.9813-.1219 4.8094-2.0344 1.4437-1.4531 1.9125-4.7625 1.9125-4.7625s.4781-3.8812.4781-7.7718v-3.6375c0-3.8813-.4781-7.7719-.4781-7.7719zm-28.4813 15.825v-13.4906l12.9657 6.7687z" fill="#000"/></g></svg>