<?xml version="1.0" standalone="no"?>
<!DOCTYPE svg PUBLIC "-//W3C//DTD SVG 20010904//EN"
 "http://www.w3.org/TR/2001/REC-SVG-20010904/DTD/svg10.dtd">
<svg version="1.0" xmlns="http://www.w3.org/2000/svg"
 width="700.000000pt" height="700.000000pt" viewBox="0 0 700.000000 700.000000"
 preserveAspectRatio="xMidYMid meet">
<metadata>
Created by potrace 1.11, written by Peter Selinger 2001-2013
</metadata>
<g transform="translate(0.000000,700.000000) scale(0.100000,-0.100000)"
fill="#000000" stroke="none">
<path d="M1209 6296 c-2 -2 -25 -7 -50 -10 -156 -21 -311 -123 -381 -252 -53
-97 -72 -194 -73 -354 0 -163 16 -264 72 -453 66 -226 200 -538 333 -772 155
-275 329 -538 552 -838 l89 -118 -64 -82 c-435 -563 -779 -1185 -913 -1651
-48 -165 -65 -270 -69 -416 -6 -220 37 -364 142 -476 113 -120 244 -168 463
-168 156 -1 197 4 365 44 234 55 633 222 883 369 29 17 55 31 57 31 9 0 275
166 390 243 132 89 336 235 432 309 l62 49 153 -114 c242 -180 542 -382 622
-418 14 -7 26 -16 26 -21 0 -4 5 -8 10 -8 6 0 27 -10 48 -23 161 -101 535
-279 717 -342 28 -9 59 -21 70 -25 25 -10 193 -54 260 -69 165 -36 384 -36
505 -1 203 58 329 198 376 415 3 17 7 86 9 155 10 461 -271 1113 -813 1887
-44 63 -136 187 -142 193 -3 3 -17 21 -30 40 -13 19 -27 37 -30 40 -35 32 -34
34 88 198 306 409 574 856 721 1202 18 41 37 86 43 100 21 50 28 66 56 150 37
108 88 314 101 405 5 39 8 126 7 195 -5 233 -78 390 -230 491 -166 111 -442
127 -766 44 -230 -58 -577 -204 -839 -352 -51 -29 -95 -53 -97 -53 -2 0 -23
-13 -47 -30 -25 -16 -48 -30 -51 -30 -4 0 -19 -9 -34 -19 -15 -10 -72 -47
-127 -82 -55 -35 -101 -67 -103 -71 -2 -5 -8 -8 -13 -8 -11 0 -260 -175 -386
-272 l-102 -79 -83 64 c-101 77 -285 208 -429 305 -110 73 -316 202 -323 202
-2 0 -34 18 -70 40 -87 53 -355 187 -480 240 -194 83 -377 141 -551 175 -73
15 -346 31 -356 21z m186 -470 c39 -3 81 -8 95 -11 93 -17 279 -75 375 -115
139 -59 188 -82 298 -137 292 -148 527 -295 865 -541 57 -41 102 -75 100 -77
-3 -2 -189 -167 -253 -224 -22 -20 -150 -146 -285 -281 -221 -220 -303 -306
-481 -505 -29 -33 -56 -59 -59 -57 -20 13 -400 562 -400 578 0 2 -15 27 -34
56 -116 183 -291 542 -359 738 -78 225 -109 438 -77 534 10 32 15 36 58 41 26
4 52 8 57 9 6 2 15 2 20 0 6 -1 42 -5 80 -8z m4392 -7 c26 -8 34 -17 39 -45 7
-39 -1 -247 -10 -262 -3 -5 -8 -27 -12 -48 -10 -64 -98 -322 -149 -434 -70
-156 -148 -309 -214 -422 -9 -15 -38 -64 -65 -110 -68 -115 -210 -327 -328
-490 -77 -106 -103 -135 -111 -125 -7 7 -48 53 -92 102 -143 161 -167 187
-410 430 -236 237 -461 448 -563 530 -9 7 516 369 628 433 19 11 64 36 100 57
314 179 544 282 795 354 153 43 311 56 392 30z m-2182 -1263 c273 -236 672
-631 900 -891 33 -37 65 -73 70 -79 51 -57 75 -90 68 -95 -4 -3 -35 -37 -68
-76 -33 -38 -67 -76 -75 -85 -8 -9 -53 -59 -100 -111 -94 -104 -468 -481 -570
-574 -124 -113 -165 -150 -248 -223 l-83 -72 -23 22 c-13 13 -45 42 -72 64
-70 60 -88 75 -194 172 -106 97 -495 484 -580 578 -89 98 -184 205 -234 263
l-46 55 33 35 c19 20 50 54 69 76 236 271 589 627 873 880 49 44 107 97 130
117 32 29 43 34 55 25 8 -7 51 -43 95 -81z m-1447 -1545 c143 -160 194 -214
422 -441 212 -212 281 -278 485 -461 33 -29 59 -56 57 -59 -2 -3 -58 -45 -125
-94 -210 -153 -466 -319 -648 -421 -85 -47 -424 -215 -435 -215 -5 0 -20 -6
-34 -13 -47 -24 -276 -100 -345 -113 -100 -20 -150 -26 -211 -26 -76 0 -144
16 -145 35 0 7 -3 21 -5 32 -6 25 -5 138 1 190 19 154 100 398 211 635 35 74
68 142 74 150 5 8 16 29 23 45 62 135 450 735 531 821 6 6 18 21 26 33 l15 22
18 -23 c11 -13 49 -57 85 -97z m2899 -33 c140 -194 353 -517 353 -533 0 -2 20
-37 44 -77 24 -41 77 -142 119 -225 194 -388 286 -720 253 -910 -7 -36 -12
-43 -42 -53 -34 -12 -158 -15 -204 -5 -13 2 -42 7 -65 11 -190 27 -566 179
-845 339 -36 21 -78 45 -95 53 -93 49 -575 369 -605 402 -3 3 -26 21 -52 40
-47 33 -47 33 -27 51 12 10 55 49 97 86 301 270 682 655 912 921 25 28 46 52
47 52 0 0 50 -69 110 -152z"/>
</g>
</svg>
